<svg width="219" height="40" viewBox="0 0 219 40" fill="none" xmlns="http://www.w3.org/2000/svg">
<path d="M34.1422 5.85781C30.3647 2.08031 25.3422 0 20 0C14.6578 0 9.63531 2.08031 5.85781 5.85781C2.08031 9.63531 0 14.6578 0 20C0 25.3422 2.08039 30.3646 5.85781 34.1422C9.63523 37.9198 14.6578 40 20 40C25.3422 40 30.3647 37.9197 34.1422 34.1422C37.9197 30.3647 40 25.3422 40 20C40 14.6578 37.9196 9.63539 34.1422 5.85781Z" fill="#33CC95"/>
<g clip-path="url(#clip0_35212_417)">
<path d="M20.5714 8V33.1429" stroke="white" stroke-width="2" stroke-linecap="round" stroke-linejoin="round"/>
<path d="M26.2857 12.5714H17.7143C16.6534 12.5714 15.636 12.9929 14.8859 13.743C14.1357 14.4931 13.7143 15.5106 13.7143 16.5714C13.7143 17.6323 14.1357 18.6497 14.8859 19.3999C15.636 20.15 16.6534 20.5714 17.7143 20.5714H23.4286C24.4894 20.5714 25.5069 20.9929 26.257 21.743C27.0072 22.4932 27.4286 23.5106 27.4286 24.5714C27.4286 25.6323 27.0072 26.6497 26.257 27.3999C25.5069 28.15 24.4894 28.5714 23.4286 28.5714H13.7143" stroke="white" stroke-width="2" stroke-linecap="round" stroke-linejoin="round"/>
</g>
<path d="M54.924 21.144C54.924 19.2027 55.344 17.476 56.184 15.964C57.024 14.4333 58.1907 13.248 59.684 12.408C61.196 11.5493 62.904 11.12 64.808 11.12C67.1413 11.12 69.1387 11.736 70.8 12.968C72.4613 14.2 73.572 15.88 74.132 18.008H68.868C68.476 17.1867 67.916 16.5613 67.188 16.132C66.4787 15.7027 65.6667 15.488 64.752 15.488C63.2773 15.488 62.0827 16.0013 61.168 17.028C60.2533 18.0547 59.796 19.4267 59.796 21.144C59.796 22.8613 60.2533 24.2333 61.168 25.26C62.0827 26.2867 63.2773 26.8 64.752 26.8C65.6667 26.8 66.4787 26.5853 67.188 26.156C67.916 25.7267 68.476 25.1013 68.868 24.28H74.132C73.572 26.408 72.4613 28.088 70.8 29.32C69.1387 30.5333 67.1413 31.14 64.808 31.14C62.904 31.14 61.196 30.72 59.684 29.88C58.1907 29.0213 57.024 27.836 56.184 26.324C55.344 24.812 54.924 23.0853 54.924 21.144ZM81.8521 27.304H88.1241V31H77.0641V11.344H81.8521V27.304ZM89.5959 21.144C89.5959 19.2027 90.0159 17.476 90.8559 15.964C91.6959 14.4333 92.8625 13.248 94.3559 12.408C95.8679 11.5493 97.5759 11.12 99.4799 11.12C101.813 11.12 103.811 11.736 105.472 12.968C107.133 14.2 108.244 15.88 108.804 18.008H103.54C103.148 17.1867 102.588 16.5613 101.86 16.132C101.151 15.7027 100.339 15.488 99.4239 15.488C97.9492 15.488 96.7545 16.0013 95.8399 17.028C94.9252 18.0547 94.4679 19.4267 94.4679 21.144C94.4679 22.8613 94.9252 24.2333 95.8399 25.26C96.7545 26.2867 97.9492 26.8 99.4239 26.8C100.339 26.8 101.151 26.5853 101.86 26.156C102.588 25.7267 103.148 25.1013 103.54 24.28H108.804C108.244 26.408 107.133 28.088 105.472 29.32C103.811 30.5333 101.813 31.14 99.4799 31.14C97.5759 31.14 95.8679 30.72 94.3559 29.88C92.8625 29.0213 91.6959 27.836 90.8559 26.324C90.0159 24.812 89.5959 23.0853 89.5959 21.144ZM139.93 11.344V31H135.142V19.212L130.746 31H126.882L122.458 19.184V31H117.67V11.344H123.326L128.842 24.952L134.302 11.344H139.93ZM150.485 31.224C148.954 31.224 147.573 30.8973 146.341 30.244C145.127 29.5907 144.166 28.6573 143.457 27.444C142.766 26.2307 142.421 24.812 142.421 23.188C142.421 21.5827 142.775 20.1733 143.485 18.96C144.194 17.728 145.165 16.7853 146.397 16.132C147.629 15.4787 149.01 15.152 150.541 15.152C152.071 15.152 153.453 15.4787 154.685 16.132C155.917 16.7853 156.887 17.728 157.597 18.96C158.306 20.1733 158.661 21.5827 158.661 23.188C158.661 24.7933 158.297 26.212 157.569 27.444C156.859 28.6573 155.879 29.5907 154.629 30.244C153.397 30.8973 152.015 31.224 150.485 31.224ZM150.485 27.08C151.399 27.08 152.174 26.744 152.809 26.072C153.462 25.4 153.789 24.4387 153.789 23.188C153.789 21.9373 153.471 20.976 152.837 20.304C152.221 19.632 151.455 19.296 150.541 19.296C149.607 19.296 148.833 19.632 148.217 20.304C147.601 20.9573 147.293 21.9187 147.293 23.188C147.293 24.4387 147.591 25.4 148.189 26.072C148.805 26.744 149.57 27.08 150.485 27.08ZM170.721 15.208C172.55 15.208 174.006 15.8053 175.089 17C176.19 18.176 176.741 19.8 176.741 21.872V31H171.981V22.516C171.981 21.4707 171.71 20.6587 171.169 20.08C170.628 19.5013 169.9 19.212 168.985 19.212C168.07 19.212 167.342 19.5013 166.801 20.08C166.26 20.6587 165.989 21.4707 165.989 22.516V31H161.201V15.376H165.989V17.448C166.474 16.7573 167.128 16.216 167.949 15.824C168.77 15.4133 169.694 15.208 170.721 15.208ZM194.796 22.936C194.796 23.384 194.768 23.8507 194.712 24.336H183.876C183.951 25.3067 184.259 26.0533 184.8 26.576C185.36 27.08 186.041 27.332 186.844 27.332C188.039 27.332 188.869 26.828 189.336 25.82H194.432C194.171 26.8467 193.695 27.7707 193.004 28.592C192.332 29.4133 191.483 30.0573 190.456 30.524C189.429 30.9907 188.281 31.224 187.012 31.224C185.481 31.224 184.119 30.8973 182.924 30.244C181.729 29.5907 180.796 28.6573 180.124 27.444C179.452 26.2307 179.116 24.812 179.116 23.188C179.116 21.564 179.443 20.1453 180.096 18.932C180.768 17.7187 181.701 16.7853 182.896 16.132C184.091 15.4787 185.463 15.152 187.012 15.152C188.524 15.152 189.868 15.4693 191.044 16.104C192.22 16.7387 193.135 17.644 193.788 18.82C194.46 19.996 194.796 21.368 194.796 22.936ZM189.896 21.676C189.896 20.8547 189.616 20.2013 189.056 19.716C188.496 19.2307 187.796 18.988 186.956 18.988C186.153 18.988 185.472 19.2213 184.912 19.688C184.371 20.1547 184.035 20.8173 183.904 21.676H189.896ZM213.282 15.376L203.482 38.42H198.33L201.914 30.468L195.558 15.376H200.906L204.518 25.148L208.102 15.376H213.282Z" fill="white"/>
<defs>
<clipPath id="clip0_35212_417">
<rect width="27.4286" height="27.4286" fill="white" transform="translate(6.85715 6.85714)"/>
</clipPath>
</defs>
</svg>
